<?xml version="1.0" standalone="no"?>
<!DOCTYPE svg PUBLIC "-//W3C//DTD SVG 20010904//EN"
 "http://www.w3.org/TR/2001/REC-SVG-20010904/DTD/svg10.dtd">
<svg version="1.0" xmlns="http://www.w3.org/2000/svg"
 width="723.000000pt" height="723.000000pt" viewBox="0 0 723.000000 723.000000"
 preserveAspectRatio="xMidYMid meet">

<g transform="translate(0.000000,723.000000) scale(0.100000,-0.100000)"
fill="#000000" stroke="none">
<path d="M0 3615 l0 -3615 3615 0 3615 0 0 3615 0 3615 -3615 0 -3615 0 0
-3615z m4127 759 c117 -70 494 -286 526 -302 15 -7 27 -17 27 -20 0 -4 -70
-48 -156 -97 l-157 -89 -36 20 c-66 37 -536 306 -568 326 l-33 20 0 -184 0
-183 53 -31 c28 -17 170 -100 315 -184 145 -84 260 -156 255 -160 -4 -5 -75
-47 -158 -95 -111 -64 -154 -84 -165 -77 -8 5 -166 96 -350 202 -184 106 -391
226 -460 266 -120 71 -143 76 -135 35 2 -9 4 -87 4 -173 l1 -157 198 -114
c108 -63 322 -185 475 -272 152 -87 277 -161 277 -164 0 -3 -70 -46 -155 -95
-133 -76 -159 -87 -178 -79 -12 6 -152 86 -312 178 -159 93 -339 196 -400 230
-317 180 -538 311 -537 320 0 8 552 335 612 363 8 4 69 39 135 78 66 39 242
140 390 224 149 85 311 178 360 207 50 29 91 53 92 53 1 0 37 -21 80 -46z"/>
</g>
</svg>
